PathFileType	4	(X/Y/Z)	s02c0102.trc
DataRate	CameraRate	NumFrames	NumMarkers	Units	OrigDataRate	OrigDataStartFrame	OrigNumFrames
200	200	4	51	mm	200	1750	2000
Frame#	Time	racr			lacr			c7			jug			rlel			rdr			llel			ldr			s2			lic			ric			lasi			rasi			rpsi			lpsi			rgt			lgt			rth1			rth2			rth3			rth4			rlfc			rmfc			rsh1			rsh2			rsh3			rsh4			rlmal			rmmal			rcal			rtoe			rmt5			rmt1			lth1			lth2			lth4			lth3			llfc			lmfc			lsh1			lsh2			lsh3			lsh4			llmal			lmmal			lcal			ltoe			lmt5			SBIKE			LBIKE			RBIKE			
		X1	Y1	Z1	X2	Y2	Z2	X3	Y3	Z3	X4	Y4	Z4	X5	Y5	Z5	X6	Y6	Z6	X7	Y7	Z7	X8	Y8	Z8	X9	Y9	Z9	X10	Y10	Z10	X11	Y11	Z11	X12	Y12	Z12	X13	Y13	Z13	X14	Y14	Z14	X15	Y15	Z15	X16	Y16	Z16	X17	Y17	Z17	X18	Y18	Z18	X19	Y19	Z19	X20	Y20	Z20	X21	Y21	Z21	X22	Y22	Z22	X23	Y23	Z23	X24	Y24	Z24	X25	Y25	Z25	X26	Y26	Z26	X27	Y27	Z27	X28	Y28	Z28	X29	Y29	Z29	X30	Y30	Z30	X31	Y31	Z31	X32	Y32	Z32	X33	Y33	Z33	X34	Y34	Z34	X35	Y35	Z35	X36	Y36	Z36	X37	Y37	Z37	X38	Y38	Z38	X39	Y39	Z39	X40	Y40	Z40	X41	Y41	Z41	X42	Y42	Z42	X43	Y43	Z43	X44	Y44	Z44	X45	Y45	Z45	X46	Y46	Z46	X47	Y47	Z47	X48	Y48	Z48	X49	Y49	Z49	X50	Y50	Z50	X51	Y51	Z51	
1750	8.7500	565.604028	1202.375678	-178.905550	535.913181	1204.129011	-506.703627	536.449453	1241.762217	-346.316091	486.541094	1107.601919	-344.065932	574.409419	973.041733	-42.626615	723.794126	843.969272	-118.097059	488.889949	938.058788	-596.513189	689.784476	853.517894	-522.730105	6.378370	1095.999434	-302.437484	133.450265	1106.853553	-455.832287	140.176492	1098.839118	-172.838107	178.855565	1072.121992	-429.163827	189.558662	1065.401722	-199.159282	34.931123	1150.260496	-263.247953	37.949726	1163.980571	-347.206174	111.022686	1010.891118	-130.584203	85.471986	1020.812966	-494.293279	199.211411	965.547399	-134.220906	281.673593	934.594599	-138.055277	340.221071	876.888423	-113.240358	300.758105	957.368023	-160.982422	423.426323	763.204697	-140.563269	406.325004	743.888825	-249.960942	363.347887	665.284659	-128.202449	311.480666	593.596200	-149.708937	236.474484	552.631989	-142.904876	321.950484	588.158469	-186.555298	142.119634	486.765594	-148.888917	164.761957	496.341215	-229.106620	59.730727	508.382766	-193.335715	233.051833	279.780797	-191.749164	153.219873	355.295957	-134.240009	178.626982	342.008873	-242.324905	213.293325	945.520684	-506.513558	292.790553	910.772396	-503.788233	313.933041	937.478585	-489.907942	344.759811	838.331938	-503.791651	422.115294	772.418051	-481.767975	434.425907	742.314379	-380.441912	416.383201	667.381898	-504.107416	424.067828	582.315902	-489.729207	386.167009	500.191411	-491.953855	443.156769	581.831848	-453.431555	349.430559	396.626527	-481.094631	367.156591	393.991524	-404.135218	281.752368	349.097884	-445.197034	568.872933	306.366977	-443.948522	461.433933	297.546515	-507.725390	-165.515742	856.731224	-317.147203	32.761058	81.617562	-515.231447	32.988138	82.074966	-114.960217	
1751	8.7550	564.566530	1202.437621	-177.126199	536.941672	1202.733595	-506.155025	536.603084	1241.443289	-345.061347	485.943648	1107.571568	-342.636339	574.148717	972.636722	-41.578018	723.834198	843.903698	-117.983380	489.667972	937.068925	-597.566164	689.846770	852.718064	-522.522296	6.944618	1093.410651	-304.069591	136.574829	1103.802296	-455.351177	140.043709	1097.904194	-173.461615	180.385842	1070.342372	-430.016086	190.147188	1065.271456	-199.611750	34.912040	1147.721451	-264.524713	39.354671	1161.291418	-348.638222	112.392280	1010.244116	-130.689387	87.217874	1017.869040	-494.614977	200.789301	967.302791	-133.048595	284.056006	938.814557	-136.930523	343.953564	882.307092	-112.822696	301.127063	960.818204	-162.480972	429.361159	770.256385	-139.888582	414.260502	751.788753	-250.975230	368.907590	672.948046	-127.614369	317.385517	601.859123	-148.708120	240.556846	561.887127	-143.216013	326.581161	596.423150	-186.348046	145.554935	497.279999	-149.259421	168.127638	507.667296	-229.048407	63.358111	519.410074	-193.594318	234.897390	289.615450	-192.116460	155.609560	365.777356	-134.561681	180.929616	352.241034	-242.719305	213.990640	940.836364	-507.123171	292.746269	904.666985	-504.093777	314.419209	931.007899	-490.240108	343.279284	831.235392	-504.073676	418.987810	763.938807	-481.876547	431.610803	733.762416	-380.807913	414.289885	658.678110	-504.120903	422.657369	573.685258	-489.543731	385.763487	491.140602	-492.429442	441.229793	573.646603	-453.046804	349.393764	387.569581	-481.777664	366.778669	384.810044	-404.766488	281.435181	341.380416	-445.880055	567.867117	293.631804	-443.770998	460.416214	286.674094	-507.745432	-165.535656	856.760822	-317.307605	32.766995	81.551244	-515.268113	32.973642	82.040712	-114.978120	
1752	8.7600	563.534394	1202.800927	-175.277627	538.128072	1201.734160	-505.462839	536.821977	1241.450404	-343.792829	485.472477	1107.847859	-341.250241	573.890799	972.257990	-40.794318	723.951248	843.777836	-118.144212	490.802350	936.464745	-598.807876	690.054148	852.184149	-522.323736	7.752808	1091.039647	-305.410462	138.839732	1101.324789	-455.449137	139.979446	1097.471332	-174.188296	182.081296	1068.943111	-431.000621	189.489438	1065.290570	-201.027589	35.017022	1145.737454	-265.903923	40.221667	1158.844080	-349.998448	113.582992	1010.059488	-130.856086	89.335223	1015.034277	-495.012949	201.812940	969.376244	-134.237029	286.342985	943.188569	-136.910063	347.181687	888.183582	-112.231189	302.265917	965.115449	-162.298902	435.027846	777.714789	-139.332714	420.462770	759.119782	-250.440518	373.788966	681.011441	-127.551346	320.667731	610.312547	-149.500839	244.831487	571.127225	-143.413883	330.726645	604.152219	-186.928820	149.297582	507.760474	-149.701850	169.776154	518.096890	-229.259430	67.126005	530.299818	-193.880931	237.283246	299.457155	-192.160079	158.646926	376.329967	-134.845239	183.807929	362.474230	-242.961428	214.983719	936.558453	-507.612114	292.944539	898.702250	-504.429640	315.155535	924.535145	-490.520672	341.821015	824.255305	-504.231674	415.741937	755.471880	-481.986518	429.157552	725.238747	-381.206060	411.611603	649.950759	-504.331081	420.817835	565.179907	-489.831908	384.605134	482.132415	-492.891852	438.603515	565.417601	-453.199161	348.589775	378.871722	-482.905582	365.855512	375.941823	-405.663382	280.484332	334.032917	-446.813144	566.031610	281.159788	-443.593057	458.730014	276.027736	-507.799336	-165.476410	856.740753	-317.349837	32.778414	81.498187	-515.272951	32.991395	82.050156	-114.990945	
1753	8.7650	562.458862	1203.428740	-173.387712	539.409575	1201.200404	-504.511398	537.101406	1241.798853	-342.434052	484.977241	1108.501000	-339.861978	573.705518	972.006508	-40.389489	724.096253	843.797350	-118.160715	492.268926	936.274308	-600.145822	690.426265	851.821124	-522.249645	8.521649	1089.382929	-306.788714	141.035221	1099.401058	-455.597434	139.941598	1097.416374	-174.961604	183.836521	1067.913992	-431.822373	190.071720	1065.887604	-201.624826	35.128248	1144.464454	-267.363260	41.089051	1157.058277	-351.397897	114.744971	1010.243607	-131.244163	91.641119	1012.411055	-495.389803	202.849678	972.100396	-134.269671	288.093472	948.035646	-136.237860	349.894622	894.316748	-111.469748	303.573964	970.614393	-162.257490	440.461198	785.679753	-138.700831	426.587350	766.830432	-250.184150	379.658052	689.099966	-126.945459	325.298757	619.093256	-149.347351	249.137609	580.510795	-143.592652	335.929192	612.571675	-186.766334	153.233213	518.077743	-150.235003	173.302830	528.121345	-229.603299	71.253942	541.043135	-194.371284	240.621528	309.673681	-192.475765	162.472282	386.863719	-134.725369	187.191067	372.590403	-243.162123	216.220331	932.439989	-508.112955	293.359209	892.675506	-504.910484	316.022035	918.110499	-490.806974	340.396891	817.182965	-504.334951	412.263317	746.956626	-482.182150	426.137304	716.357517	-381.533514	408.313567	641.397461	-504.710599	418.175429	556.620464	-490.477971	382.646205	473.271088	-493.582040	435.677287	556.694774	-453.415751	347.451717	370.378173	-483.903375	364.250926	367.295569	-406.533320	279.018733	326.893829	-447.916315	563.533571	268.909382	-443.125479	456.530165	265.565318	-507.837625	-165.470759	856.855390	-317.355548	32.781407	81.520130	-515.266446	33.027112	82.073603	-114.967133	
